# xmcd CD database file
#
# Track frame offsets:
#	183
#	30478
#	62930
#	88478
#	110228
#
# Disc length: 1831 seconds
#
# Revision: 0
# Processed by: cddbd v1.5.1PL2 Copyright (c) Steve Scherf et al.
# Submitted via: CDex 1.51
#
DISCID=46072505
DTITLE=Scott, Stephen - Something to Consider
DYEAR=1991
DGENRE=Jazz
TTITLE0=Au Privave
TTITLE1=Something to Consider
TTITLE2=The Fact of the Matter
TTITLE3=Pent-Up House
TTITLE4=All the Comforts of Home
EXTD=YEAR: 1991
EXTT0=
EXTT1=
EXTT2=
EXTT3=
EXTT4=
PLAYORDER=
